<?xml version="1.0" encoding="UTF-8"?>
<!-- Created with Inkscape (http://www.inkscape.org/) -->
<svg version="1.1" viewBox="0 0 338.67 190.5" xmlns="http://www.w3.org/2000/svg">
 <g transform="matrix(.63801 0 0 .63801 -341.47 -33.871)">
  <path d="m613.64 237.29s41.303-55.441 121.2-80.43c79.896-24.989-3.7655-56.962-3.7655-56.962l28.18 0.7899s148.66 36.313 58.389 93.553-99.425 75.545-109.67 105.2c-10.242 29.657 0 0 0 0s-72.516-32.94-94.337-62.153z" fill="#ff8d00"/>
  <path d="m765.5 313.38s-11.139-59.049 53.955-92.436c65.094-33.386 70.179-91.498-36.568-123.62-106.75-32.121-0.29444 0.0253-0.29444 0.0253s30.592 0.11583 47.804 3.352c17.212 3.2362 108.72 13.206 150.15 136.03s0.0606-0.30294 0.0606-0.30294-66.252 93.616-215.11 76.95z" fill="#ff8d00"/>
  <path d="m708.06 299.42" fill="none" stroke="#000" stroke-width="1px"/>
  <path d="m708.06 299.42" fill="none" stroke="#000" stroke-width="1px"/>
 </g>
</svg>
